<svg width="15" height="14" viewBox="0 0 15 14" fill="none" xmlns="http://www.w3.org/2000/svg">
<path d="M12.7 3.59998H2.3C1.58203 3.59998 1 4.18201 1 4.89998V11.4C1 12.1179 1.58203 12.7 2.3 12.7H12.7C13.418 12.7 14 12.1179 14 11.4V4.89998C14 4.18201 13.418 3.59998 12.7 3.59998Z" stroke="#FB6D3A" stroke-width="1.3" stroke-linecap="round" stroke-linejoin="round"/>
<path d="M10.1 12.7V2.3C10.1 1.95522 9.96303 1.62456 9.71923 1.38076C9.47544 1.13696 9.14478 1 8.79999 1H6.19999C5.85521 1 5.52455 1.13696 5.28076 1.38076C5.03696 1.62456 4.89999 1.95522 4.89999 2.3V12.7" stroke="#FB6D3A" stroke-width="1.3" stroke-linecap="round" stroke-linejoin="round"/>
</svg>
